<svg width="16" height="16" viewBox="0 0 16 16" fill="none" xmlns="http://www.w3.org/2000/svg">
<path d="M15.4362 0.826416H0.563755C0.252884 0.826416 0 1.0793 0 1.39018V10.8936C0 10.8937 0.000322145 10.894 0.000322145 10.8944V12.3448C0.000322145 12.5286 0.149153 12.6771 0.332615 12.6771H6.22208C6.19244 13.3305 6.0478 14.6419 5.36952 14.9294C5.36952 14.9294 5.10617 15.1738 5.84291 15.1738H7.10411H8.84241H10.1036C10.8399 15.1738 10.5768 14.9294 10.5768 14.9294C9.89856 14.6419 9.75408 13.3303 9.72428 12.6771H15.674C15.8578 12.6771 15.9984 12.5285 15.9984 12.3448V10.9093C15.9987 10.904 16 10.8992 16 10.8936V1.39018C16 1.07962 15.7471 0.826416 15.4362 0.826416ZM7.61069 11.5379C7.61069 11.323 7.78497 11.1485 8.00016 11.1485C8.21503 11.1485 8.38931 11.3228 8.38931 11.5379C8.38931 11.7529 8.21503 11.9272 8.00016 11.9272C7.78497 11.9272 7.61069 11.7529 7.61069 11.5379ZM15.5168 10.5171H0.483218V1.39018C0.483218 1.34572 0.51946 1.30964 0.563755 1.30964H15.4362C15.4805 1.30964 15.5168 1.34572 15.5168 1.39018V10.5171Z" fill="#404950"/>
</svg>
