<svg width="13" height="16" viewBox="0 0 13 16" fill="none" xmlns="http://www.w3.org/2000/svg">
<path d="M11.0918 1.94559C8.56302 -0.648529 4.4472 -0.648529 1.90097 1.94559C-0.627814 4.52193 -0.627814 8.67962 1.86609 11.2737L6.50511 16L11.2313 11.1849C13.638 8.57302 13.5857 4.4864 11.0918 1.94559ZM6.01679 4.27318C6.13887 4.16657 6.29583 4.11327 6.50511 4.11327C6.69695 4.11327 6.87135 4.16657 6.99343 4.27318C7.11551 4.37979 7.18527 4.52193 7.18527 4.71738C7.18527 4.89506 7.11551 5.0372 6.99343 5.16158C6.87135 5.26818 6.71439 5.32149 6.50511 5.32149C6.31327 5.32149 6.13887 5.26818 6.01679 5.16158C5.89471 5.05497 5.82495 4.91283 5.82495 4.71738C5.82495 4.52193 5.87727 4.37979 6.01679 4.27318ZM7.60382 10.0655H5.42383V9.76346C5.51103 9.72793 5.58079 9.69239 5.66799 9.65686C5.75519 9.62132 5.84239 9.60355 5.94703 9.56802V6.60078L5.42383 6.52971V6.22765C5.51103 6.19212 5.59823 6.15658 5.72031 6.13881C5.84239 6.10328 5.96447 6.08551 6.10399 6.04997C6.24351 6.0322 6.36559 5.99667 6.48767 5.9789C6.60975 5.96113 6.73183 5.94336 6.81903 5.94336H7.08063V9.56802C7.18527 9.60355 7.27246 9.62132 7.35966 9.65686C7.44686 9.69239 7.51662 9.72793 7.60382 9.76346V10.0655Z" fill="#788995" fill-opacity="0.5"/>
</svg>
