<svg width="16" height="16" viewBox="0 0 16 16" fill="none" xmlns="http://www.w3.org/2000/svg">
<path d="M8.00019 0.623782C6.80457 0.6237 5.62686 0.914258 4.56848 1.47043C3.5101 2.0266 2.60278 2.83171 1.92467 3.81643C1.24655 4.80114 0.817974 5.93593 0.675842 7.12307C0.53371 8.3102 0.682285 9.5141 1.10877 10.6311C1.53526 11.748 2.22687 12.7446 3.12404 13.5349C4.02121 14.3252 5.09705 14.8855 6.25889 15.1677C7.42073 15.4499 8.63375 15.4454 9.79347 15.1546C10.9532 14.8639 12.0249 14.2956 12.9162 13.4986C12.0418 14.0855 11.0129 14.3997 9.95982 14.4014C8.20276 14.4014 6.63065 13.5295 5.57083 12.1555C4.75468 11.1926 4.22771 9.7702 4.19102 8.17314V7.82378C4.22771 6.22672 4.75468 4.80286 5.57083 3.8414C6.62771 2.46745 8.20276 1.59553 9.95982 1.59553C11.0402 1.59553 12.0516 1.9258 12.9162 2.49975C11.5725 1.29519 9.83264 0.62695 8.02808 0.622314H7.99872L8.00019 0.623782Z" fill="url(#paint0_linear)"/>
<path d="M5.57227 3.84304C6.2475 3.0445 7.12383 2.56157 8.07796 2.56157C10.2255 2.56157 11.9679 4.99827 11.9679 7.99863C11.9679 11.0019 10.2269 13.4357 8.07796 13.4357C7.12383 13.4357 6.24897 12.9542 5.57227 12.1557C6.62915 13.5296 8.20273 14.4016 9.96126 14.4016C11.0143 14.3994 12.043 14.0852 12.9176 13.4988C13.6923 12.8077 14.312 11.9605 14.7357 11.0127C15.1595 10.065 15.3778 9.03827 15.3763 8.0001C15.3775 6.96184 15.159 5.93508 14.7349 4.98735C14.3109 4.03961 13.691 3.19239 12.9161 2.50139C12.0418 1.91448 11.0129 1.6003 9.95979 1.59863C8.20273 1.59863 6.63062 2.47056 5.5708 3.84451" fill="url(#paint1_linear)"/>
<defs>
<linearGradient id="paint0_linear" x1="6.76716" y1="0.865984" x2="6.76716" y2="15.1632" gradientUnits="userSpaceOnUse">
<stop offset="0.6" stop-color="#FF1B2D"/>
<stop offset="1" stop-color="#A70014"/>
</linearGradient>
<linearGradient id="paint1_linear" x1="10.4809" y1="1.70285" x2="10.4809" y2="14.3561" gradientUnits="userSpaceOnUse">
<stop stop-color="#9C0000"/>
<stop offset="0.7" stop-color="#FF4B4B"/>
</linearGradient>
</defs>
</svg>
