<svg width="16" height="16" viewBox="0 0 16 16" fill="none" xmlns="http://www.w3.org/2000/svg">
<path fill-rule="evenodd" clip-rule="evenodd" d="M15 2.5H5.91465C5.70873 1.9174 5.15311 1.5 4.5 1.5C3.84689 1.5 3.29127 1.9174 3.08535 2.5H1V3.5H3.08535C3.29127 4.0826 3.84689 4.5 4.5 4.5C5.15311 4.5 5.70873 4.0826 5.91465 3.5H15V2.5ZM10.0854 7.5H1V8.5H10.0854C10.2913 9.0826 10.8469 9.5 11.5 9.5C12.1531 9.5 12.7087 9.0826 12.9146 8.5H15V7.5H12.9146C12.7087 6.9174 12.1531 6.5 11.5 6.5C10.8469 6.5 10.2913 6.9174 10.0854 7.5ZM5.91465 12.5H15V13.5H5.91465C5.70873 14.0826 5.15311 14.5 4.5 14.5C3.84689 14.5 3.29127 14.0826 3.08535 13.5H1V12.5H3.08535C3.29127 11.9174 3.84689 11.5 4.5 11.5C5.15311 11.5 5.70873 11.9174 5.91465 12.5Z" fill="#788995"/>
</svg>
