<svg width="15" height="15" viewBox="0 0 15 15" fill="none" xmlns="http://www.w3.org/2000/svg">
<path d="M3.74977 3.75C3.74977 3.00832 3.96971 2.2833 4.38176 1.66661C4.79382 1.04993 5.37949 0.569282 6.06471 0.285453C6.74993 0.00162481 7.50393 -0.0726377 8.23136 0.0720569C8.95879 0.216751 9.62697 0.573904 10.1514 1.09835C10.6759 1.6228 11.033 2.29098 11.1777 3.01841C11.3224 3.74584 11.2481 4.49984 10.9643 5.18506C10.6805 5.87029 10.1998 6.45596 9.58316 6.86801C8.96648 7.28007 8.24145 7.5 7.49977 7.5C6.50521 7.5 5.55138 7.10491 4.84812 6.40165C4.14486 5.69839 3.74977 4.74456 3.74977 3.75ZM14.9676 14.2821L13.4676 10.1518C13.2421 9.53156 12.8312 8.99577 12.2907 8.61719C11.7501 8.23862 11.1061 8.0356 10.4462 8.03572H4.55334C3.8934 8.0356 3.24942 8.23862 2.70887 8.61719C2.16832 8.99577 1.75739 9.53156 1.53191 10.1518L0.031915 14.2821C0.00267323 14.363 -0.0066652 14.4498 0.00468908 14.535C0.0160434 14.6203 0.0477566 14.7015 0.0971479 14.7719C0.146539 14.8423 0.212156 14.8998 0.288453 14.9395C0.364749 14.9792 0.449481 15 0.535486 15H14.4641C14.5501 15 14.6348 14.9792 14.7111 14.9395C14.7874 14.8998 14.853 14.8423 14.9024 14.7719C14.9518 14.7015 14.9835 14.6203 14.9949 14.535C15.0062 14.4498 14.9969 14.363 14.9676 14.2821Z" fill="#141000"/>
</svg>
