<svg width="30" height="30" viewBox="0 0 30 30" fill="none" xmlns="http://www.w3.org/2000/svg">
<path d="M10.0794 30L0 4.48148L4.02778 2.7963L11.5079 22.8704L10.0794 19.0366L14.3452 15.6667L10.6151 6.22222L14.6429 4.59259L21.627 23.8148C22.3677 22.2839 23.0952 20.7654 23.8095 19.2593C24.537 17.7407 25.2579 16.2099 25.9722 14.6667C26.3161 13.9136 26.6204 13.1543 26.8849 12.3889C27.1495 11.6111 27.2817 10.7901 27.2817 9.92593C27.2817 9.25926 27.1892 8.62963 27.004 8.03704C26.832 7.44444 26.5873 6.88272 26.2698 6.35185C25.9524 5.80864 25.5688 5.30247 25.119 4.83333C24.6825 4.35185 24.2064 3.90123 23.6905 3.48148L26.7064 0C27.1958 0.333333 27.6389 0.746914 28.0357 1.24074C28.4458 1.73457 28.7963 2.26543 29.0873 2.83333C29.3783 3.40123 29.6032 3.98765 29.7619 4.59259C29.9206 5.19753 30 5.77778 30 6.33333C30 7.41975 29.828 8.47531 29.4841 9.5C29.1402 10.5123 28.7434 11.5185 28.2937 12.5185C26.9312 15.4568 25.5622 18.3704 24.1865 21.2593C22.8108 24.1481 21.4286 27.0617 20.0397 30L14.9603 17.1852L10.0794 30Z" fill="#141000"/>
</svg>
